<svg height="512pt" viewBox="0 0 512 512" width="512pt" xmlns="http://www.w3.org/2000/svg"><path d="m512 169.421875v112.039063l-44.128906 109.558593h-437.851563v-331.230469h437.851563zm0 0" fill="#e3eeff"/><path d="m512 169.421875v112.039063l-44.128906 109.558593h-175.992188v-331.230469h175.992188zm0 0" fill="#d7e2f2"/><g fill="#38506e"><path d="m512 103.902344v65.578125h-110.058594v-109.691407h65.929688c24.339844 0 44.128906 19.785157 44.128906 44.113282zm0 0"/><path d="m291.878906 169.480469h110.0625v111.980469h-110.0625zm0 0"/><path d="m512 281.460938v65.449218c0 24.324219-19.789062 44.109375-44.128906 44.109375h-65.929688v-109.558593zm0 0"/></g><path d="m177.820312 59.789062h114.058594v109.691407h-114.058594zm0 0" fill="#697e97"/><path d="m177.820312 281.394531h114.058594v109.691407h-114.058594zm0 0" fill="#697e97"/><path d="m51.761719 169.414062h126.058593v111.980469h-126.058593zm0 0" fill="#697e97"/><path d="m59.410156 29.703125v452.601563c0 8.199218-3.332031 15.628906-8.699218 20.996093-5.300782 5.300781-12.609376 8.617188-20.691407 8.6875-.097656.011719-.210937.011719-.308593.011719-16.410157 0-29.710938-13.296875-29.710938-29.695312v-452.601563c0-16.40625 13.300781-29.703125 29.710938-29.703125.097656 0 .210937 0 .308593.0117188 16.261719.1601562 29.390625 13.3867192 29.390625 29.6914062zm0 0" fill="#ffde00"/><path d="m59.410156 29.703125v452.601563c0 8.199218-3.332031 15.628906-8.699218 20.996093-5.300782 5.300781-12.609376 8.617188-20.691407 8.6875v-511.9765622c16.261719.1601562 29.390625 13.3867192 29.390625 29.6914062zm0 0" fill="#ffbc17"/></svg>