<svg height="512pt" viewBox="0 -42 512.001 512" width="512pt" xmlns="http://www.w3.org/2000/svg"><path d="m482.125 406.921875h-452.25v-320.386719c0-11.378906 9.226562-20.601562 20.605469-20.601562h410.910156c11.429687 0 20.675781 9.300781 20.605469 20.730468zm0 0" fill="#8175ba"/><path d="m482.125 396.621094h-30.90625l-.132812-309.960938c.070312-11.425781-9.167969-20.726562-20.59375-20.726562h30.90625c11.421874 0 20.664062 9.300781 20.59375 20.726562zm0 0" fill="#575293"/><path d="m496.546875 427.527344h-481.09375c-8.535156 0-15.453125-6.917969-15.453125-15.453125 0-8.535157 6.917969-15.453125 15.453125-15.453125h481.09375c8.535156 0 15.453125 6.917968 15.453125 15.453125 0 8.535156-6.917969 15.453125-15.453125 15.453125zm0 0" fill="#d8d8d8"/><path d="m512 412.074219c0 4.265625-1.730469 8.128906-4.53125 10.917969-2.792969 2.804687-6.65625 4.535156-10.921875 4.535156h-30.90625c4.265625 0 8.128906-1.730469 10.921875-4.535156 2.800781-2.789063 4.53125-6.652344 4.53125-10.917969 0-1.804688-.308594-3.535157-.882812-5.152344-2.113282-5.996094-7.84375-10.300781-14.570313-10.300781h30.90625c8.53125 0 15.453125 6.921875 15.453125 15.453125zm0 0" fill="#afafaf"/><path d="m446.066406 365.714844h-380.132812c-2.847656 0-5.152344-2.304688-5.152344-5.148438v-258.578125c0-2.84375 2.304688-5.152343 5.152344-5.152343h380.136718c2.84375 0 5.148438 2.308593 5.148438 5.152343v258.574219c0 2.847656-2.304688 5.152344-5.152344 5.152344zm0 0" fill="#fafeff"/><path d="m446.066406 365.714844h-318.324218v-30.90625h323.476562v25.757812c0 2.84375-2.304688 5.148438-5.152344 5.148438zm0 0" fill="#e8e8e8"/><path d="m138.042969 365.714844h-72.109375c-2.847656 0-5.152344-2.304688-5.152344-5.148438v-258.578125c0-2.84375 2.304688-5.152343 5.152344-5.152343h72.113281v268.878906zm0 0" fill="#d8d8d8"/><path d="m398.679688 133.925781h-285.359376c-11.378906 0-20.605468-9.226562-20.605468-20.605469v-92.714843c0-11.378907 9.226562-20.605469 20.605468-20.605469h285.359376c11.378906 0 20.605468 9.226562 20.605468 20.605469v92.714843c0 11.378907-9.226562 20.605469-20.605468 20.605469zm0 0" fill="#f2d67c"/><path d="m419.285156 20.605469v92.714843c0 11.382813-9.222656 20.605469-20.605468 20.605469h-30.90625c11.386718 0 20.605468-9.222656 20.605468-20.605469v-92.714843c0-11.382813-9.21875-20.605469-20.605468-20.605469h30.90625c11.382812 0 20.605468 9.222656 20.605468 20.605469zm0 0" fill="#e2b061"/><path d="m278.664062 195.734375h-58.71875c-4.269531 0-7.726562-3.457031-7.726562-7.726563 0-4.265624 3.457031-7.722656 7.726562-7.722656h58.71875c4.269532 0 7.726563 3.457032 7.726563 7.722656 0 4.269532-3.457031 7.726563-7.726563 7.726563zm0 0" fill="#ea9292"/><path d="m347.6875 195.734375h-38.117188c-4.269531 0-7.726562-3.457031-7.726562-7.726563 0-4.265624 3.457031-7.722656 7.726562-7.722656h38.117188c4.265625 0 7.722656 3.457032 7.722656 7.722656 0 4.269532-3.457031 7.726563-7.722656 7.726563zm0 0" fill="#ef9867"/><path d="m406.40625 195.734375h-27.816406c-4.265625 0-7.726563-3.457031-7.726563-7.726563 0-4.265624 3.460938-7.722656 7.726563-7.722656h27.816406c4.269531 0 7.726562 3.457032 7.726562 7.722656 0 4.269532-3.457031 7.726563-7.726562 7.726563zm0 0" fill="#ef9867"/><path d="m347.6875 226.640625h-63.871094c-4.269531 0-7.726562-3.460937-7.726562-7.726563 0-4.265624 3.457031-7.726562 7.726562-7.726562h63.871094c4.265625 0 7.722656 3.460938 7.722656 7.726562 0 4.265626-3.457031 7.726563-7.722656 7.726563zm0 0" fill="#83cc9a"/><path d="m406.40625 226.640625h-27.816406c-4.265625 0-7.726563-3.460937-7.726563-7.726563 0-4.265624 3.460938-7.726562 7.726563-7.726562h27.816406c4.269531 0 7.726562 3.460938 7.726562 7.726562 0 4.265626-3.457031 7.726563-7.726562 7.726563zm0 0" fill="#747a89"/><path d="m347.6875 257.546875h-63.871094c-4.269531 0-7.726562-3.460937-7.726562-7.726563 0-4.265624 3.457031-7.726562 7.726562-7.726562h63.871094c4.265625 0 7.722656 3.460938 7.722656 7.726562 0 4.265626-3.457031 7.726563-7.722656 7.726563zm0 0" fill="#83cc9a"/><path d="m406.40625 257.546875h-27.816406c-4.265625 0-7.726563-3.460937-7.726563-7.726563 0-4.265624 3.460938-7.726562 7.726563-7.726562h27.816406c4.269531 0 7.726562 3.460938 7.726562 7.726562 0 4.265626-3.457031 7.726563-7.726562 7.726563zm0 0" fill="#747a89"/><path d="m278.664062 288.453125h-58.71875c-4.269531 0-7.726562-3.460937-7.726562-7.726563 0-4.269531 3.457031-7.726562 7.726562-7.726562h58.71875c4.269532 0 7.726563 3.457031 7.726563 7.726562 0 4.265626-3.457031 7.726563-7.726563 7.726563zm0 0" fill="#ea9292"/><path d="m347.6875 288.453125h-38.117188c-4.269531 0-7.726562-3.460937-7.726562-7.726563 0-4.269531 3.457031-7.726562 7.726562-7.726562h38.117188c4.265625 0 7.722656 3.457031 7.722656 7.726562 0 4.265626-3.457031 7.726563-7.722656 7.726563zm0 0" fill="#ef9867"/><path d="m406.40625 288.453125h-27.816406c-4.265625 0-7.726563-3.460937-7.726563-7.726563 0-4.269531 3.460938-7.726562 7.726563-7.726562h27.816406c4.269531 0 7.726562 3.457031 7.726562 7.726562 0 4.265626-3.457031 7.726563-7.726562 7.726563zm0 0" fill="#ef9867"/><g fill="#747a89"><path d="m97.867188 186.722656c-5.679688 0-10.300782-4.625-10.300782-10.304687 0-5.679688 4.621094-10.300781 10.300782-10.300781 5.679687 0 10.300781 4.621093 10.300781 10.300781 0 5.679687-4.621094 10.304687-10.300781 10.304687zm0 0"/><path d="m97.867188 225.867188c-5.679688 0-10.300782-4.621094-10.300782-10.300782 0-5.679687 4.621094-10.300781 10.300782-10.300781 5.679687 0 10.300781 4.621094 10.300781 10.300781 0 5.679688-4.621094 10.300782-10.300781 10.300782zm0 0"/><path d="m97.867188 265.53125c-5.679688 0-10.300782-4.621094-10.300782-10.304688 0-5.679687 4.621094-10.300781 10.300782-10.300781 5.679687 0 10.300781 4.621094 10.300781 10.300781 0 5.683594-4.621094 10.304688-10.300781 10.304688zm0 0"/><path d="m97.867188 306.738281c-5.679688 0-10.300782-4.621093-10.300782-10.304687 0-5.679688 4.621094-10.300782 10.300782-10.300782 5.679687 0 10.300781 4.621094 10.300781 10.300782 0 5.683594-4.621094 10.304687-10.300781 10.304687zm0 0"/></g><path d="m171.269531 29.101562c-4.269531 0-7.726562 3.460938-7.726562 7.726563v22.148437h-20.605469v-22.148437c0-4.265625-3.457031-7.726563-7.726562-7.726563-4.265626 0-7.726563 3.460938-7.726563 7.726563v59.75c0 4.269531 3.460937 7.726563 7.726563 7.726563 4.269531 0 7.726562-3.457032 7.726562-7.726563v-22.148437h20.605469v22.148437c0 4.269531 3.457031 7.726563 7.726562 7.726563 4.265625 0 7.722657-3.457032 7.722657-7.726563v-59.75c0-4.265625-3.457032-7.726563-7.722657-7.726563zm0 0" fill="#a8704a"/><path d="m238.230469 29.101562h-36.058594c-4.265625 0-7.726563 3.460938-7.726563 7.726563 0 4.269531 3.460938 7.726563 7.726563 7.726563h10.304687v52.023437c0 4.269531 3.457032 7.726563 7.722657 7.726563 4.269531 0 7.726562-3.457032 7.726562-7.726563v-52.023437h10.304688c4.265625 0 7.722656-3.457032 7.722656-7.722657 0-4.269531-3.457031-7.730469-7.722656-7.730469zm0 0" fill="#a8704a"/><path d="m320.472656 29.675781c-2.910156-1.183593-6.242187-.496093-8.441406 1.746094l-18.6875 19.089844-18.6875-19.089844c-2.195312-2.242187-5.535156-2.933594-8.441406-1.746094s-4.808594 4.015625-4.808594 7.152344v59.75c0 4.269531 3.460938 7.726563 7.726562 7.726563 4.269532 0 7.726563-3.457032 7.726563-7.726563v-40.8125l10.964844 11.195313c1.453125 1.484374 3.441406 2.320312 5.519531 2.320312s4.066406-.835938 5.519531-2.320312l10.960938-11.195313v40.816406c0 4.265625 3.460937 7.722657 7.726562 7.722657 4.269531 0 7.726563-3.457032 7.726563-7.722657v-59.75c.003906-3.140625-1.898438-5.96875-4.804688-7.15625zm0 0" fill="#a8704a"/><path d="m376.789062 89.371094h-20.605468v-52.542969c0-4.265625-3.457032-7.726563-7.722656-7.726563-4.269532 0-7.726563 3.460938-7.726563 7.726563v60.265625c0 4.269531 3.457031 7.726562 7.726563 7.726562h28.328124c4.269532 0 7.726563-3.457031 7.726563-7.726562 0-4.265625-3.460937-7.722656-7.726563-7.722656zm0 0" fill="#a8704a"/></svg>